<svg width="20" height="20" viewBox="0 0 20 20" fill="none" xmlns="http://www.w3.org/2000/svg">
<g clip-path="url(#clip0_3365_2526)">
<path d="M20 10C20 8.7768 19.78 7.60504 19.378 6.52176L10 6.08695L0.621992 6.52172C0.220039 7.60504 0 8.7768 0 10C0 11.2232 0.220039 12.395 0.621992 13.4782L10 13.913L19.378 13.4783C19.78 12.395 20 11.2232 20 10Z" fill="#D80027"/>
<path d="M9.99999 20C14.2996 20 17.9651 17.2863 19.378 13.4782H0.621979C2.03491 17.2863 5.70034 20 9.99999 20Z" fill="#6DA544"/>
<path d="M0.621979 6.52176H19.378C17.9651 2.71375 14.2996 0 9.99999 0C5.70034 0 2.03491 2.71375 0.621979 6.52176V6.52176Z" fill="#4FB8EC"/>
<path d="M10.2174 12.8261C8.65661 12.8261 7.39129 11.5608 7.39129 10C7.39129 8.43922 8.65661 7.17391 10.2174 7.17391C10.704 7.17391 11.162 7.29695 11.5617 7.51359C10.9345 6.90027 10.0769 6.52172 9.13043 6.52172C7.20942 6.52172 5.65219 8.07898 5.65219 9.99996C5.65219 11.9209 7.20946 13.4782 9.13043 13.4782C10.0769 13.4782 10.9346 13.0996 11.5617 12.4863C11.162 12.703 10.704 12.8261 10.2174 12.8261Z" fill="#F0F0F0"/>
<path d="M12.3913 8.04348L12.7656 9.09625L13.7748 8.61649L13.2951 9.62563L14.3478 10L13.2951 10.3744L13.7748 11.3835L12.7656 10.9038L12.3913 11.9565L12.017 10.9038L11.0078 11.3835L11.4876 10.3744L10.4348 10L11.4876 9.62563L11.0078 8.61649L12.017 9.09625L12.3913 8.04348Z" fill="#F0F0F0"/>
</g>
<defs>
<clipPath id="clip0_3365_2526">
<rect width="20" height="20" fill="white"/>
</clipPath>
</defs>
</svg>
