<svg width="64" height="64" viewBox="0 0 64 64" fill="none" xmlns="http://www.w3.org/2000/svg">
<path d="M0 32C0 14.3269 14.3269 0 32 0C49.6731 0 64 14.3269 64 32C64 49.6731 49.6731 64 32 64C14.3269 64 0 49.6731 0 32Z" fill="url(#paint0_linear_52_6098)" fill-opacity="0.1"/>
<g filter="url(#filter0_ddddi_52_6098)">
<path d="M12 32C12 20.9543 20.9543 12 32 12C43.0457 12 52 20.9543 52 32C52 43.0457 43.0457 52 32 52C20.9543 52 12 43.0457 12 32Z" fill="white"/>
<path d="M27.0095 38.3L23 41.45V24.8C23 24.5613 23.0948 24.3324 23.2636 24.1636C23.4324 23.9948 23.6613 23.9 23.9 23.9H40.1C40.3387 23.9 40.5676 23.9948 40.7364 24.1636C40.9052 24.3324 41 24.5613 41 24.8V37.4C41 37.6387 40.9052 37.8676 40.7364 38.0364C40.5676 38.2052 40.3387 38.3 40.1 38.3H27.0095ZM26.3867 36.5H39.2V25.7H24.8V37.7465L26.3867 36.5ZM31.3637 32.1089L35.1824 28.2911L36.455 29.5637L31.3637 34.655L27.8627 31.154L29.1362 29.8814L31.3637 32.1089Z" fill="#0355E3"/>
</g>
<defs>
<filter id="filter0_ddddi_52_6098" x="9" y="11" width="46" height="50" filterUnits="userSpaceOnUse" color-interpolation-filters="sRGB">
<feFlood flood-opacity="0" result="BackgroundImageFix"/>
<feColorMatrix in="SourceAlpha" type="matrix" values="0 0 0 0 0 0 0 0 0 0 0 0 0 0 0 0 0 0 127 0" result="hardAlpha"/>
<feMorphology radius="3" operator="erode" in="SourceAlpha" result="effect1_dropShadow_52_6098"/>
<feOffset dy="6"/>
<feGaussianBlur stdDeviation="3"/>
<feComposite in2="hardAlpha" operator="out"/>
<feColorMatrix type="matrix" values="0 0 0 0 0.278431 0 0 0 0 0.760784 0 0 0 0 1 0 0 0 0.05 0"/>
<feBlend mode="normal" in2="BackgroundImageFix" result="effect1_dropShadow_52_6098"/>
<feColorMatrix in="SourceAlpha" type="matrix" values="0 0 0 0 0 0 0 0 0 0 0 0 0 0 0 0 0 0 127 0" result="hardAlpha"/>
<feMorphology radius="1.5" operator="erode" in="SourceAlpha" result="effect2_dropShadow_52_6098"/>
<feOffset dy="3"/>
<feGaussianBlur stdDeviation="1.5"/>
<feComposite in2="hardAlpha" operator="out"/>
<feColorMatrix type="matrix" values="0 0 0 0 0.278431 0 0 0 0 0.760784 0 0 0 0 1 0 0 0 0.1 0"/>
<feBlend mode="normal" in2="effect1_dropShadow_52_6098" result="effect2_dropShadow_52_6098"/>
<feColorMatrix in="SourceAlpha" type="matrix" values="0 0 0 0 0 0 0 0 0 0 0 0 0 0 0 0 0 0 127 0" result="hardAlpha"/>
<feMorphology radius="0.5" operator="dilate" in="SourceAlpha" result="effect3_dropShadow_52_6098"/>
<feOffset dy="1"/>
<feGaussianBlur stdDeviation="0.5"/>
<feComposite in2="hardAlpha" operator="out"/>
<feColorMatrix type="matrix" values="0 0 0 0 0.278431 0 0 0 0 0.760784 0 0 0 0 1 0 0 0 0.1 0"/>
<feBlend mode="normal" in2="effect2_dropShadow_52_6098" result="effect3_dropShadow_52_6098"/>
<feColorMatrix in="SourceAlpha" type="matrix" values="0 0 0 0 0 0 0 0 0 0 0 0 0 0 0 0 0 0 127 0" result="hardAlpha"/>
<feMorphology radius="1" operator="dilate" in="SourceAlpha" result="effect4_dropShadow_52_6098"/>
<feOffset/>
<feComposite in2="hardAlpha" operator="out"/>
<feColorMatrix type="matrix" values="0 0 0 0 0.278431 0 0 0 0 0.760784 0 0 0 0 1 0 0 0 0.1 0"/>
<feBlend mode="normal" in2="effect3_dropShadow_52_6098" result="effect4_dropShadow_52_6098"/>
<feBlend mode="normal" in="SourceGraphic" in2="effect4_dropShadow_52_6098" result="shape"/>
<feColorMatrix in="SourceAlpha" type="matrix" values="0 0 0 0 0 0 0 0 0 0 0 0 0 0 0 0 0 0 127 0" result="hardAlpha"/>
<feMorphology radius="0.5" operator="dilate" in="SourceAlpha" result="effect5_innerShadow_52_6098"/>
<feOffset dy="-1"/>
<feGaussianBlur stdDeviation="0.5"/>
<feComposite in2="hardAlpha" operator="arithmetic" k2="-1" k3="1"/>
<feColorMatrix type="matrix" values="0 0 0 0 0.278431 0 0 0 0 0.760784 0 0 0 0 1 0 0 0 0.16 0"/>
<feBlend mode="normal" in2="shape" result="effect5_innerShadow_52_6098"/>
</filter>
<linearGradient id="paint0_linear_52_6098" x1="32" y1="0" x2="32" y2="64" gradientUnits="userSpaceOnUse">
<stop stop-color="#0750D0"/>
<stop offset="1" stop-color="#0750D0" stop-opacity="0.1"/>
</linearGradient>
</defs>
</svg>
