<svg width="64" height="64" viewBox="0 0 64 64" fill="none" xmlns="http://www.w3.org/2000/svg">
<path d="M0 32C0 14.3269 14.3269 0 32 0C49.6731 0 64 14.3269 64 32C64 49.6731 49.6731 64 32 64C14.3269 64 0 49.6731 0 32Z" fill="url(#paint0_linear_52_401)" fill-opacity="0.1"/>
<g filter="url(#filter0_ddddi_52_401)">
<path d="M12 32C12 20.9543 20.9543 12 32 12C43.0457 12 52 20.9543 52 32C52 43.0457 43.0457 52 32 52C20.9543 52 12 43.0457 12 32Z" fill="white"/>
<path d="M24.8 41C24.8 39.0904 25.5586 37.2591 26.9088 35.9088C28.2591 34.5586 30.0904 33.8 32 33.8C33.9095 33.8 35.7409 34.5586 37.0912 35.9088C38.4414 37.2591 39.2 39.0904 39.2 41H37.4C37.4 39.5678 36.8311 38.1943 35.8184 37.1816C34.8057 36.1689 33.4322 35.6 32 35.6C30.5678 35.6 29.1943 36.1689 28.1816 37.1816C27.1689 38.1943 26.6 39.5678 26.6 41H24.8ZM32 32.9C29.0165 32.9 26.6 30.4835 26.6 27.5C26.6 24.5165 29.0165 22.1 32 22.1C34.9835 22.1 37.4 24.5165 37.4 27.5C37.4 30.4835 34.9835 32.9 32 32.9ZM32 31.1C33.989 31.1 35.6 29.489 35.6 27.5C35.6 25.511 33.989 23.9 32 23.9C30.011 23.9 28.4 25.511 28.4 27.5C28.4 29.489 30.011 31.1 32 31.1Z" fill="#0355E3"/>
</g>
<defs>
<filter id="filter0_ddddi_52_401" x="9" y="11" width="46" height="50" filterUnits="userSpaceOnUse" color-interpolation-filters="sRGB">
<feFlood flood-opacity="0" result="BackgroundImageFix"/>
<feColorMatrix in="SourceAlpha" type="matrix" values="0 0 0 0 0 0 0 0 0 0 0 0 0 0 0 0 0 0 127 0" result="hardAlpha"/>
<feMorphology radius="3" operator="erode" in="SourceAlpha" result="effect1_dropShadow_52_401"/>
<feOffset dy="6"/>
<feGaussianBlur stdDeviation="3"/>
<feComposite in2="hardAlpha" operator="out"/>
<feColorMatrix type="matrix" values="0 0 0 0 0.278431 0 0 0 0 0.760784 0 0 0 0 1 0 0 0 0.05 0"/>
<feBlend mode="normal" in2="BackgroundImageFix" result="effect1_dropShadow_52_401"/>
<feColorMatrix in="SourceAlpha" type="matrix" values="0 0 0 0 0 0 0 0 0 0 0 0 0 0 0 0 0 0 127 0" result="hardAlpha"/>
<feMorphology radius="1.5" operator="erode" in="SourceAlpha" result="effect2_dropShadow_52_401"/>
<feOffset dy="3"/>
<feGaussianBlur stdDeviation="1.5"/>
<feComposite in2="hardAlpha" operator="out"/>
<feColorMatrix type="matrix" values="0 0 0 0 0.278431 0 0 0 0 0.760784 0 0 0 0 1 0 0 0 0.1 0"/>
<feBlend mode="normal" in2="effect1_dropShadow_52_401" result="effect2_dropShadow_52_401"/>
<feColorMatrix in="SourceAlpha" type="matrix" values="0 0 0 0 0 0 0 0 0 0 0 0 0 0 0 0 0 0 127 0" result="hardAlpha"/>
<feMorphology radius="0.5" operator="dilate" in="SourceAlpha" result="effect3_dropShadow_52_401"/>
<feOffset dy="1"/>
<feGaussianBlur stdDeviation="0.5"/>
<feComposite in2="hardAlpha" operator="out"/>
<feColorMatrix type="matrix" values="0 0 0 0 0.278431 0 0 0 0 0.760784 0 0 0 0 1 0 0 0 0.1 0"/>
<feBlend mode="normal" in2="effect2_dropShadow_52_401" result="effect3_dropShadow_52_401"/>
<feColorMatrix in="SourceAlpha" type="matrix" values="0 0 0 0 0 0 0 0 0 0 0 0 0 0 0 0 0 0 127 0" result="hardAlpha"/>
<feMorphology radius="1" operator="dilate" in="SourceAlpha" result="effect4_dropShadow_52_401"/>
<feOffset/>
<feComposite in2="hardAlpha" operator="out"/>
<feColorMatrix type="matrix" values="0 0 0 0 0.278431 0 0 0 0 0.760784 0 0 0 0 1 0 0 0 0.1 0"/>
<feBlend mode="normal" in2="effect3_dropShadow_52_401" result="effect4_dropShadow_52_401"/>
<feBlend mode="normal" in="SourceGraphic" in2="effect4_dropShadow_52_401" result="shape"/>
<feColorMatrix in="SourceAlpha" type="matrix" values="0 0 0 0 0 0 0 0 0 0 0 0 0 0 0 0 0 0 127 0" result="hardAlpha"/>
<feMorphology radius="0.5" operator="dilate" in="SourceAlpha" result="effect5_innerShadow_52_401"/>
<feOffset dy="-1"/>
<feGaussianBlur stdDeviation="0.5"/>
<feComposite in2="hardAlpha" operator="arithmetic" k2="-1" k3="1"/>
<feColorMatrix type="matrix" values="0 0 0 0 0.278431 0 0 0 0 0.760784 0 0 0 0 1 0 0 0 0.16 0"/>
<feBlend mode="normal" in2="shape" result="effect5_innerShadow_52_401"/>
</filter>
<linearGradient id="paint0_linear_52_401" x1="32" y1="0" x2="32" y2="64" gradientUnits="userSpaceOnUse">
<stop stop-color="#0750D0"/>
<stop offset="1" stop-color="#0750D0" stop-opacity="0.1"/>
</linearGradient>
</defs>
</svg>
